<mxfile host="app.diagrams.net" modified="2021-12-30T06:45:06.700Z" agent="5.0 (Windows NT 10.0; Win64; x64) AppleWebKit/537.36 (KHTML, like Gecko) Chrome/96.0.4664.110 Safari/537.36" etag="h5cP9JAqjOhsMiyokzke" version="16.1.0" type="github">
  <diagram id="i0BVcHhkj3sf4RAyH7ed" name="Page-1">
    <mxGraphModel dx="1038" dy="547" grid="1" gridSize="10" guides="1" tooltips="1" connect="1" arrows="1" fold="1" page="1" pageScale="1" pageWidth="850" pageHeight="1100" math="0" shadow="0">
      <root>
        <mxCell id="0" />
        <mxCell id="1" parent="0" />
        <mxCell id="EjhDiAqnloXwMQvLUNkH-35" value="" style="group;fontColor=#FF5E19;" parent="1" vertex="1" connectable="0">
          <mxGeometry x="60" y="70" width="700" height="420" as="geometry" />
        </mxCell>
        <mxCell id="EjhDiAqnloXwMQvLUNkH-2" value="Mobile client" style="sketch=0;outlineConnect=0;fontColor=#232F3E;gradientColor=none;strokeColor=#232F3E;fillColor=#ffffff;dashed=0;verticalLabelPosition=bottom;verticalAlign=top;align=center;html=1;fontSize=12;fontStyle=0;aspect=fixed;shape=mxgraph.aws4.resourceIcon;resIcon=mxgraph.aws4.mobile_client;" parent="EjhDiAqnloXwMQvLUNkH-35" vertex="1">
          <mxGeometry y="70" width="60" height="60" as="geometry" />
        </mxCell>
        <mxCell id="EjhDiAqnloXwMQvLUNkH-3" value="" style="sketch=0;aspect=fixed;pointerEvents=1;shadow=0;dashed=0;html=1;strokeColor=none;labelPosition=center;verticalLabelPosition=bottom;verticalAlign=top;align=center;fillColor=#00188D;shape=mxgraph.mscae.enterprise.workstation_client" parent="EjhDiAqnloXwMQvLUNkH-35" vertex="1">
          <mxGeometry x="5" y="210" width="50" height="50" as="geometry" />
        </mxCell>
        <mxCell id="EjhDiAqnloXwMQvLUNkH-5" value="" style="image;html=1;image=img/lib/clip_art/computers/Laptop_128x128.png" parent="EjhDiAqnloXwMQvLUNkH-35" vertex="1">
          <mxGeometry x="5" y="330" width="65" height="60" as="geometry" />
        </mxCell>
        <mxCell id="EjhDiAqnloXwMQvLUNkH-6" value="" style="shape=image;html=1;verticalAlign=top;verticalLabelPosition=bottom;labelBackgroundColor=#ffffff;imageAspect=0;aspect=fixed;image=https://cdn1.iconfinder.com/data/icons/nuove/128x128/filesystems/www.png" parent="EjhDiAqnloXwMQvLUNkH-35" vertex="1">
          <mxGeometry x="140" y="200" width="60" height="60" as="geometry" />
        </mxCell>
        <mxCell id="EjhDiAqnloXwMQvLUNkH-27" style="edgeStyle=orthogonalEdgeStyle;rounded=0;orthogonalLoop=1;jettySize=auto;html=1;entryX=0;entryY=0.25;entryDx=0;entryDy=0;" parent="EjhDiAqnloXwMQvLUNkH-35" source="EjhDiAqnloXwMQvLUNkH-2" target="EjhDiAqnloXwMQvLUNkH-6" edge="1">
          <mxGeometry relative="1" as="geometry" />
        </mxCell>
        <mxCell id="EjhDiAqnloXwMQvLUNkH-28" style="edgeStyle=orthogonalEdgeStyle;rounded=0;orthogonalLoop=1;jettySize=auto;html=1;entryX=0;entryY=0.5;entryDx=0;entryDy=0;" parent="EjhDiAqnloXwMQvLUNkH-35" source="EjhDiAqnloXwMQvLUNkH-3" target="EjhDiAqnloXwMQvLUNkH-6" edge="1">
          <mxGeometry relative="1" as="geometry" />
        </mxCell>
        <mxCell id="EjhDiAqnloXwMQvLUNkH-29" style="edgeStyle=orthogonalEdgeStyle;rounded=0;orthogonalLoop=1;jettySize=auto;html=1;entryX=0;entryY=0.75;entryDx=0;entryDy=0;" parent="EjhDiAqnloXwMQvLUNkH-35" source="EjhDiAqnloXwMQvLUNkH-5" target="EjhDiAqnloXwMQvLUNkH-6" edge="1">
          <mxGeometry relative="1" as="geometry" />
        </mxCell>
        <mxCell id="EjhDiAqnloXwMQvLUNkH-7" value="Public Cloud Amazon S3 Service" style="sketch=0;outlineConnect=0;fontColor=#232F3E;gradientColor=none;strokeColor=#ffffff;fillColor=#232F3E;dashed=0;verticalLabelPosition=middle;verticalAlign=bottom;align=center;html=1;whiteSpace=wrap;fontSize=10;fontStyle=1;spacing=3;shape=mxgraph.aws4.productIcon;prIcon=mxgraph.aws4.s3;" parent="EjhDiAqnloXwMQvLUNkH-35" vertex="1">
          <mxGeometry x="264.75" y="300" width="70" height="120" as="geometry" />
        </mxCell>
        <mxCell id="EjhDiAqnloXwMQvLUNkH-8" value="&lt;br&gt;Private Cloud Storage Service Instance-01" style="sketch=0;outlineConnect=0;fontColor=#232F3E;gradientColor=none;strokeColor=#ffffff;fillColor=#232F3E;dashed=0;verticalLabelPosition=middle;verticalAlign=bottom;align=center;html=1;whiteSpace=wrap;fontSize=10;fontStyle=1;spacing=3;shape=mxgraph.aws4.productIcon;prIcon=mxgraph.aws4.ec2;" parent="EjhDiAqnloXwMQvLUNkH-35" vertex="1">
          <mxGeometry x="620" width="80" height="120" as="geometry" />
        </mxCell>
        <mxCell id="EjhDiAqnloXwMQvLUNkH-10" value="" style="outlineConnect=0;dashed=0;verticalLabelPosition=bottom;verticalAlign=top;align=center;html=1;shape=mxgraph.aws3.virtual_private_cloud;fillColor=#F58534;gradientColor=none;" parent="EjhDiAqnloXwMQvLUNkH-35" vertex="1">
          <mxGeometry x="260" y="200" width="79.5" height="54" as="geometry" />
        </mxCell>
        <mxCell id="EjhDiAqnloXwMQvLUNkH-11" value="" style="fillColor=#28A8E0;verticalLabelPosition=bottom;sketch=0;html=1;strokeColor=#ffffff;verticalAlign=top;align=center;points=[[0.145,0.145,0],[0.5,0,0],[0.855,0.145,0],[1,0.5,0],[0.855,0.855,0],[0.5,1,0],[0.145,0.855,0],[0,0.5,0]];pointerEvents=1;shape=mxgraph.cisco_safe.compositeIcon;bgIcon=ellipse;resIcon=mxgraph.cisco_safe.capability.dns;" parent="EjhDiAqnloXwMQvLUNkH-35" vertex="1">
          <mxGeometry x="148.5" y="110" width="43" height="43" as="geometry" />
        </mxCell>
        <mxCell id="EjhDiAqnloXwMQvLUNkH-12" style="edgeStyle=orthogonalEdgeStyle;rounded=0;orthogonalLoop=1;jettySize=auto;html=1;entryX=0.5;entryY=1;entryDx=0;entryDy=0;entryPerimeter=0;" parent="EjhDiAqnloXwMQvLUNkH-35" source="EjhDiAqnloXwMQvLUNkH-6" target="EjhDiAqnloXwMQvLUNkH-11" edge="1">
          <mxGeometry relative="1" as="geometry" />
        </mxCell>
        <mxCell id="EjhDiAqnloXwMQvLUNkH-13" value="" style="endArrow=classic;startArrow=classic;html=1;rounded=0;" parent="EjhDiAqnloXwMQvLUNkH-35" target="EjhDiAqnloXwMQvLUNkH-10" edge="1">
          <mxGeometry width="50" height="50" relative="1" as="geometry">
            <mxPoint x="190" y="227" as="sourcePoint" />
            <mxPoint x="220" y="330" as="targetPoint" />
          </mxGeometry>
        </mxCell>
        <mxCell id="EjhDiAqnloXwMQvLUNkH-14" value="Amazon API Gateway" style="sketch=0;outlineConnect=0;fontColor=#232F3E;gradientColor=none;strokeColor=#ffffff;fillColor=#232F3E;dashed=0;verticalLabelPosition=middle;verticalAlign=bottom;align=center;html=1;whiteSpace=wrap;fontSize=10;fontStyle=1;spacing=3;shape=mxgraph.aws4.productIcon;prIcon=mxgraph.aws4.api_gateway;" parent="EjhDiAqnloXwMQvLUNkH-35" vertex="1">
          <mxGeometry x="380" y="40" width="40" height="70" as="geometry" />
        </mxCell>
        <mxCell id="EjhDiAqnloXwMQvLUNkH-15" value="" style="endArrow=classic;startArrow=classic;html=1;rounded=0;" parent="EjhDiAqnloXwMQvLUNkH-35" edge="1">
          <mxGeometry width="50" height="50" relative="1" as="geometry">
            <mxPoint x="300" y="130" as="sourcePoint" />
            <mxPoint x="300" y="199" as="targetPoint" />
          </mxGeometry>
        </mxCell>
        <mxCell id="EjhDiAqnloXwMQvLUNkH-17" value="Classic Load Balancer" style="sketch=0;outlineConnect=0;fontColor=#232F3E;gradientColor=none;strokeColor=#ffffff;fillColor=#232F3E;dashed=0;verticalLabelPosition=middle;verticalAlign=bottom;align=center;html=1;whiteSpace=wrap;fontSize=10;fontStyle=1;spacing=3;shape=mxgraph.aws4.productIcon;prIcon=mxgraph.aws4.classic_load_balancer;" parent="EjhDiAqnloXwMQvLUNkH-35" vertex="1">
          <mxGeometry x="290" y="40" width="40" height="80" as="geometry" />
        </mxCell>
        <mxCell id="EjhDiAqnloXwMQvLUNkH-18" value="" style="endArrow=classic;startArrow=classic;html=1;rounded=0;" parent="EjhDiAqnloXwMQvLUNkH-35" edge="1">
          <mxGeometry width="50" height="50" relative="1" as="geometry">
            <mxPoint x="330" y="60" as="sourcePoint" />
            <mxPoint x="380" y="60" as="targetPoint" />
          </mxGeometry>
        </mxCell>
        <mxCell id="EjhDiAqnloXwMQvLUNkH-24" style="edgeStyle=orthogonalEdgeStyle;rounded=0;orthogonalLoop=1;jettySize=auto;html=1;" parent="EjhDiAqnloXwMQvLUNkH-35" source="EjhDiAqnloXwMQvLUNkH-19" target="EjhDiAqnloXwMQvLUNkH-8" edge="1">
          <mxGeometry relative="1" as="geometry">
            <Array as="points">
              <mxPoint x="540" y="60" />
              <mxPoint x="540" y="60" />
            </Array>
          </mxGeometry>
        </mxCell>
        <mxCell id="EjhDiAqnloXwMQvLUNkH-19" value="Application Load Balancer" style="sketch=0;outlineConnect=0;fontColor=#232F3E;gradientColor=none;strokeColor=#ffffff;fillColor=#232F3E;dashed=0;verticalLabelPosition=middle;verticalAlign=bottom;align=center;html=1;whiteSpace=wrap;fontSize=10;fontStyle=1;spacing=3;shape=mxgraph.aws4.productIcon;prIcon=mxgraph.aws4.application_load_balancer;" parent="EjhDiAqnloXwMQvLUNkH-35" vertex="1">
          <mxGeometry x="470" y="40" width="40" height="80" as="geometry" />
        </mxCell>
        <mxCell id="EjhDiAqnloXwMQvLUNkH-21" value="" style="endArrow=classic;startArrow=classic;html=1;rounded=0;" parent="EjhDiAqnloXwMQvLUNkH-35" edge="1">
          <mxGeometry width="50" height="50" relative="1" as="geometry">
            <mxPoint x="418" y="61" as="sourcePoint" />
            <mxPoint x="468" y="61" as="targetPoint" />
          </mxGeometry>
        </mxCell>
        <mxCell id="EjhDiAqnloXwMQvLUNkH-23" value="&lt;br&gt;Private Cloud Storage Service Instance-02" style="sketch=0;outlineConnect=0;fontColor=#232F3E;gradientColor=none;strokeColor=#ffffff;fillColor=#232F3E;dashed=0;verticalLabelPosition=middle;verticalAlign=bottom;align=center;html=1;whiteSpace=wrap;fontSize=10;fontStyle=1;spacing=3;shape=mxgraph.aws4.productIcon;prIcon=mxgraph.aws4.ec2;" parent="EjhDiAqnloXwMQvLUNkH-35" vertex="1">
          <mxGeometry x="620" y="130" width="80" height="120" as="geometry" />
        </mxCell>
        <mxCell id="EjhDiAqnloXwMQvLUNkH-25" style="edgeStyle=orthogonalEdgeStyle;rounded=0;orthogonalLoop=1;jettySize=auto;html=1;" parent="EjhDiAqnloXwMQvLUNkH-35" source="EjhDiAqnloXwMQvLUNkH-19" target="EjhDiAqnloXwMQvLUNkH-23" edge="1">
          <mxGeometry relative="1" as="geometry">
            <mxPoint x="610" y="180" as="targetPoint" />
            <Array as="points">
              <mxPoint x="550" y="60" />
              <mxPoint x="550" y="180" />
            </Array>
          </mxGeometry>
        </mxCell>
        <mxCell id="EjhDiAqnloXwMQvLUNkH-30" value="&lt;font color=&quot;#ff1c6f&quot;&gt;Clients&lt;/font&gt;" style="text;html=1;strokeColor=none;fillColor=none;align=center;verticalAlign=middle;whiteSpace=wrap;rounded=0;fontStyle=1" parent="EjhDiAqnloXwMQvLUNkH-35" vertex="1">
          <mxGeometry x="20" y="20" width="60" height="30" as="geometry" />
        </mxCell>
        <mxCell id="EjhDiAqnloXwMQvLUNkH-31" value="&lt;font color=&quot;#ffb012&quot;&gt;Internet Layer&lt;/font&gt;" style="text;html=1;strokeColor=none;fillColor=none;align=center;verticalAlign=middle;whiteSpace=wrap;rounded=0;fontStyle=1" parent="EjhDiAqnloXwMQvLUNkH-35" vertex="1">
          <mxGeometry x="140" y="20" width="60" height="30" as="geometry" />
        </mxCell>
        <mxCell id="EjhDiAqnloXwMQvLUNkH-32" value="Cloud Service Provider" style="text;html=1;strokeColor=none;fillColor=none;align=center;verticalAlign=middle;whiteSpace=wrap;rounded=0;fontStyle=1" parent="EjhDiAqnloXwMQvLUNkH-35" vertex="1">
          <mxGeometry x="320" y="175" width="60" height="30" as="geometry" />
        </mxCell>
        <mxCell id="EjhDiAqnloXwMQvLUNkH-33" value="Cloud Service Provider Managed Services" style="text;html=1;strokeColor=none;fillColor=none;align=center;verticalAlign=middle;whiteSpace=wrap;rounded=0;fontStyle=1" parent="EjhDiAqnloXwMQvLUNkH-35" vertex="1">
          <mxGeometry x="339.5" y="280" width="60" height="30" as="geometry" />
        </mxCell>
        <mxCell id="EjhDiAqnloXwMQvLUNkH-34" value="&lt;font color=&quot;#6666ff&quot;&gt;Private Cloud Application Layer&lt;/font&gt;" style="text;html=1;strokeColor=none;fillColor=none;align=center;verticalAlign=middle;whiteSpace=wrap;rounded=0;fontStyle=1" parent="EjhDiAqnloXwMQvLUNkH-35" vertex="1">
          <mxGeometry x="290" width="230.5" height="30" as="geometry" />
        </mxCell>
        <mxCell id="EjhDiAqnloXwMQvLUNkH-36" value="&lt;span style=&quot;font-size: 14px&quot;&gt;Design: Private Distributed Storage Service Architecture&lt;br&gt;# Rishant Gupta&lt;br&gt;&lt;/span&gt;" style="text;html=1;fillColor=#E1D5E7;align=center;verticalAlign=middle;whiteSpace=wrap;rounded=0;strokeWidth=1;fontStyle=3;fontSize=14;labelBorderColor=none;fontFamily=Times New Roman;" parent="1" vertex="1">
          <mxGeometry x="60" y="30" width="390" height="40" as="geometry" />
        </mxCell>
        <mxCell id="nq1kJvmmAwqUdLJEiB9N-1" value="" style="endArrow=classic;startArrow=classic;html=1;rounded=0;" edge="1" parent="1">
          <mxGeometry width="50" height="50" relative="1" as="geometry">
            <mxPoint x="358" y="324" as="sourcePoint" />
            <mxPoint x="358" y="371" as="targetPoint" />
          </mxGeometry>
        </mxCell>
      </root>
    </mxGraphModel>
  </diagram>
</mxfile>
